<mxfile host="app.diagrams.net" agent="Mozilla/5.0 (Windows NT 10.0; Win64; x64) AppleWebKit/537.36 (KHTML, like Gecko) Chrome/138.0.0.0 Safari/537.36" version="28.0.6">
  <diagram name="Page-1" id="NikSEuZaoTTKXcrs2ITW">
    <mxGraphModel dx="2745" dy="958" grid="1" gridSize="10" guides="1" tooltips="1" connect="1" arrows="1" fold="1" page="1" pageScale="1" pageWidth="850" pageHeight="1100" math="0" shadow="0">
      <root>
        <mxCell id="0" />
        <mxCell id="1" parent="0" />
        <mxCell id="nAvkXDpZ_VF7ttyVOgmh-27" style="rounded=0;orthogonalLoop=1;jettySize=auto;html=1;exitX=0.5;exitY=1;exitDx=0;exitDy=0;entryX=0.5;entryY=0;entryDx=0;entryDy=0;endArrow=none;endFill=0;" edge="1" parent="1" source="nAvkXDpZ_VF7ttyVOgmh-1" target="nAvkXDpZ_VF7ttyVOgmh-2">
          <mxGeometry relative="1" as="geometry" />
        </mxCell>
        <mxCell id="nAvkXDpZ_VF7ttyVOgmh-28" style="rounded=0;orthogonalLoop=1;jettySize=auto;html=1;exitX=0.5;exitY=1;exitDx=0;exitDy=0;entryX=0.5;entryY=0;entryDx=0;entryDy=0;endArrow=none;endFill=0;" edge="1" parent="1" source="nAvkXDpZ_VF7ttyVOgmh-1" target="nAvkXDpZ_VF7ttyVOgmh-3">
          <mxGeometry relative="1" as="geometry" />
        </mxCell>
        <mxCell id="nAvkXDpZ_VF7ttyVOgmh-1" value="&lt;div&gt;GEN-AI POWERED&amp;nbsp;&lt;/div&gt;&lt;div&gt;&lt;span style=&quot;background-color: transparent; color: light-dark(rgb(0, 0, 0), rgb(255, 255, 255));&quot;&gt;TELEMETRY ANALYSIS&amp;nbsp;&lt;/span&gt;&lt;span style=&quot;background-color: transparent; color: light-dark(rgb(0, 0, 0), rgb(255, 255, 255));&quot;&gt;SYSTEM&lt;/span&gt;&lt;/div&gt;" style="rounded=1;whiteSpace=wrap;html=1;" vertex="1" parent="1">
          <mxGeometry x="320" y="40" width="200" height="60" as="geometry" />
        </mxCell>
        <mxCell id="nAvkXDpZ_VF7ttyVOgmh-18" style="rounded=0;orthogonalLoop=1;jettySize=auto;html=1;exitX=0.5;exitY=1;exitDx=0;exitDy=0;entryX=0.5;entryY=0;entryDx=0;entryDy=0;strokeColor=default;endArrow=none;endFill=0;" edge="1" parent="1" source="nAvkXDpZ_VF7ttyVOgmh-2" target="nAvkXDpZ_VF7ttyVOgmh-4">
          <mxGeometry relative="1" as="geometry" />
        </mxCell>
        <mxCell id="nAvkXDpZ_VF7ttyVOgmh-20" style="rounded=0;orthogonalLoop=1;jettySize=auto;html=1;exitX=0.5;exitY=1;exitDx=0;exitDy=0;entryX=0.5;entryY=0;entryDx=0;entryDy=0;endArrow=none;endFill=0;" edge="1" parent="1" source="nAvkXDpZ_VF7ttyVOgmh-2" target="nAvkXDpZ_VF7ttyVOgmh-5">
          <mxGeometry relative="1" as="geometry" />
        </mxCell>
        <mxCell id="nAvkXDpZ_VF7ttyVOgmh-21" style="rounded=0;orthogonalLoop=1;jettySize=auto;html=1;exitX=0.5;exitY=1;exitDx=0;exitDy=0;entryX=0.5;entryY=0;entryDx=0;entryDy=0;endArrow=none;endFill=0;" edge="1" parent="1" source="nAvkXDpZ_VF7ttyVOgmh-2" target="nAvkXDpZ_VF7ttyVOgmh-7">
          <mxGeometry relative="1" as="geometry" />
        </mxCell>
        <mxCell id="nAvkXDpZ_VF7ttyVOgmh-22" style="rounded=0;orthogonalLoop=1;jettySize=auto;html=1;exitX=0.5;exitY=1;exitDx=0;exitDy=0;entryX=0.5;entryY=0;entryDx=0;entryDy=0;endArrow=none;endFill=0;" edge="1" parent="1" source="nAvkXDpZ_VF7ttyVOgmh-2" target="nAvkXDpZ_VF7ttyVOgmh-8">
          <mxGeometry relative="1" as="geometry" />
        </mxCell>
        <mxCell id="nAvkXDpZ_VF7ttyVOgmh-2" value="DATA STORE CREATION" style="rounded=1;whiteSpace=wrap;html=1;" vertex="1" parent="1">
          <mxGeometry x="60" y="220" width="180" height="60" as="geometry" />
        </mxCell>
        <mxCell id="nAvkXDpZ_VF7ttyVOgmh-23" style="rounded=0;orthogonalLoop=1;jettySize=auto;html=1;exitX=0.5;exitY=1;exitDx=0;exitDy=0;entryX=0.5;entryY=0;entryDx=0;entryDy=0;endArrow=none;endFill=0;" edge="1" parent="1" source="nAvkXDpZ_VF7ttyVOgmh-3" target="nAvkXDpZ_VF7ttyVOgmh-9">
          <mxGeometry relative="1" as="geometry" />
        </mxCell>
        <mxCell id="nAvkXDpZ_VF7ttyVOgmh-24" style="rounded=0;orthogonalLoop=1;jettySize=auto;html=1;exitX=0.5;exitY=1;exitDx=0;exitDy=0;entryX=0.5;entryY=0;entryDx=0;entryDy=0;endArrow=none;endFill=0;" edge="1" parent="1" source="nAvkXDpZ_VF7ttyVOgmh-3" target="nAvkXDpZ_VF7ttyVOgmh-11">
          <mxGeometry relative="1" as="geometry" />
        </mxCell>
        <mxCell id="nAvkXDpZ_VF7ttyVOgmh-3" value="USER QUERY&amp;nbsp;&lt;div&gt;RESPONSE SYSTEM&lt;/div&gt;" style="rounded=1;whiteSpace=wrap;html=1;" vertex="1" parent="1">
          <mxGeometry x="600" y="220" width="180" height="60" as="geometry" />
        </mxCell>
        <mxCell id="nAvkXDpZ_VF7ttyVOgmh-4" value="Telemetric&amp;nbsp;&lt;span style=&quot;background-color: transparent; color: light-dark(rgb(0, 0, 0), rgb(255, 255, 255));&quot;&gt;Data&amp;nbsp;&lt;/span&gt;&lt;div&gt;&lt;div&gt;&lt;span style=&quot;background-color: transparent; color: light-dark(rgb(0, 0, 0), rgb(255, 255, 255));&quot;&gt;Collection&lt;/span&gt;&lt;/div&gt;&lt;/div&gt;" style="rounded=1;whiteSpace=wrap;html=1;" vertex="1" parent="1">
          <mxGeometry x="-200" y="440" width="100" height="50" as="geometry" />
        </mxCell>
        <mxCell id="nAvkXDpZ_VF7ttyVOgmh-26" style="rounded=0;orthogonalLoop=1;jettySize=auto;html=1;exitX=0.5;exitY=1;exitDx=0;exitDy=0;entryX=0.5;entryY=0;entryDx=0;entryDy=0;endArrow=none;endFill=0;" edge="1" parent="1" source="nAvkXDpZ_VF7ttyVOgmh-5" target="nAvkXDpZ_VF7ttyVOgmh-6">
          <mxGeometry relative="1" as="geometry" />
        </mxCell>
        <mxCell id="nAvkXDpZ_VF7ttyVOgmh-5" value="Data Parsing and Processing" style="rounded=1;whiteSpace=wrap;html=1;" vertex="1" parent="1">
          <mxGeometry x="-20" y="440" width="100" height="50" as="geometry" />
        </mxCell>
        <mxCell id="nAvkXDpZ_VF7ttyVOgmh-6" value="Semantic Chunking" style="rounded=1;whiteSpace=wrap;html=1;" vertex="1" parent="1">
          <mxGeometry x="-20" y="600" width="100" height="50" as="geometry" />
        </mxCell>
        <mxCell id="nAvkXDpZ_VF7ttyVOgmh-7" value="Sentence Embedding" style="rounded=1;whiteSpace=wrap;html=1;" vertex="1" parent="1">
          <mxGeometry x="160" y="440" width="100" height="50" as="geometry" />
        </mxCell>
        <mxCell id="nAvkXDpZ_VF7ttyVOgmh-8" value="Persist to&amp;nbsp;&lt;span style=&quot;background-color: transparent; color: light-dark(rgb(0, 0, 0), rgb(255, 255, 255));&quot;&gt;Vector Database Store&lt;/span&gt;" style="rounded=1;whiteSpace=wrap;html=1;" vertex="1" parent="1">
          <mxGeometry x="340" y="440" width="100" height="50" as="geometry" />
        </mxCell>
        <mxCell id="nAvkXDpZ_VF7ttyVOgmh-9" value="Similarity Search for Relevant Data" style="rounded=1;whiteSpace=wrap;html=1;" vertex="1" parent="1">
          <mxGeometry x="510" y="440" width="100" height="50" as="geometry" />
        </mxCell>
        <mxCell id="nAvkXDpZ_VF7ttyVOgmh-101" style="edgeStyle=orthogonalEdgeStyle;rounded=0;orthogonalLoop=1;jettySize=auto;html=1;exitX=0.5;exitY=1;exitDx=0;exitDy=0;entryX=0.5;entryY=0;entryDx=0;entryDy=0;endArrow=none;endFill=0;" edge="1" parent="1" source="nAvkXDpZ_VF7ttyVOgmh-11" target="nAvkXDpZ_VF7ttyVOgmh-99">
          <mxGeometry relative="1" as="geometry" />
        </mxCell>
        <mxCell id="nAvkXDpZ_VF7ttyVOgmh-11" value="Prompt Augmentation" style="rounded=1;whiteSpace=wrap;html=1;" vertex="1" parent="1">
          <mxGeometry x="790" y="440" width="100" height="50" as="geometry" />
        </mxCell>
        <mxCell id="nAvkXDpZ_VF7ttyVOgmh-38" style="rounded=0;orthogonalLoop=1;jettySize=auto;html=1;exitX=0.5;exitY=1;exitDx=0;exitDy=0;" edge="1" parent="1">
          <mxGeometry relative="1" as="geometry">
            <mxPoint x="150" y="190" as="targetPoint" />
            <mxPoint x="273.9289321881347" y="130.07106781186542" as="sourcePoint" />
          </mxGeometry>
        </mxCell>
        <mxCell id="nAvkXDpZ_VF7ttyVOgmh-33" value="" style="ellipse;whiteSpace=wrap;html=1;aspect=fixed;rotation=45;" vertex="1" parent="1">
          <mxGeometry x="271.93" y="120" width="15" height="15" as="geometry" />
        </mxCell>
        <mxCell id="nAvkXDpZ_VF7ttyVOgmh-39" value="Telemetry" style="text;html=1;align=center;verticalAlign=middle;resizable=0;points=[];autosize=1;strokeColor=none;fillColor=none;rotation=-25;" vertex="1" parent="1">
          <mxGeometry x="170" y="130" width="80" height="30" as="geometry" />
        </mxCell>
        <mxCell id="nAvkXDpZ_VF7ttyVOgmh-40" style="rounded=0;orthogonalLoop=1;jettySize=auto;html=1;exitX=0.5;exitY=1;exitDx=0;exitDy=0;entryX=-0.03;entryY=0.925;entryDx=0;entryDy=0;entryPerimeter=0;" edge="1" parent="1" target="nAvkXDpZ_VF7ttyVOgmh-42">
          <mxGeometry relative="1" as="geometry">
            <mxPoint x="-26.93" y="340" as="targetPoint" />
            <mxPoint x="46.998932188134695" y="300.0696890131536" as="sourcePoint" />
            <Array as="points">
              <mxPoint x="5" y="320" />
            </Array>
          </mxGeometry>
        </mxCell>
        <mxCell id="nAvkXDpZ_VF7ttyVOgmh-41" value="" style="ellipse;whiteSpace=wrap;html=1;aspect=fixed;rotation=45;" vertex="1" parent="1">
          <mxGeometry x="45.00000000000001" y="289.9986212012882" width="15" height="15" as="geometry" />
        </mxCell>
        <mxCell id="nAvkXDpZ_VF7ttyVOgmh-42" value="Log Data" style="text;html=1;align=center;verticalAlign=middle;resizable=0;points=[];autosize=1;strokeColor=none;fillColor=none;rotation=-25;fontSize=10;" vertex="1" parent="1">
          <mxGeometry x="-20" y="289.9986212012882" width="60" height="30" as="geometry" />
        </mxCell>
        <mxCell id="nAvkXDpZ_VF7ttyVOgmh-63" style="rounded=0;orthogonalLoop=1;jettySize=auto;html=1;exitX=0.5;exitY=0;exitDx=0;exitDy=0;entryX=1.03;entryY=0.018;entryDx=0;entryDy=0;entryPerimeter=0;" edge="1" parent="1" target="nAvkXDpZ_VF7ttyVOgmh-64">
          <mxGeometry relative="1" as="geometry">
            <mxPoint x="2" y="388.5" as="targetPoint" />
            <mxPoint x="-88.9966991411009" y="425.4966991411009" as="sourcePoint" />
          </mxGeometry>
        </mxCell>
        <mxCell id="nAvkXDpZ_VF7ttyVOgmh-56" value="" style="ellipse;whiteSpace=wrap;html=1;aspect=fixed;rotation=45;fillColor=light-dark(#FFFFFF, #ffffff);fillStyle=solid;" vertex="1" parent="1">
          <mxGeometry x="-103" y="421" width="15" height="15" as="geometry" />
        </mxCell>
        <mxCell id="nAvkXDpZ_VF7ttyVOgmh-64" value="Data Collected" style="text;html=1;align=center;verticalAlign=middle;resizable=0;points=[];autosize=1;strokeColor=none;fillColor=none;rotation=331;fontSize=10;" vertex="1" parent="1">
          <mxGeometry x="-86.99995352760675" y="399.9962559664742" width="90" height="30" as="geometry" />
        </mxCell>
        <mxCell id="nAvkXDpZ_VF7ttyVOgmh-66" value="" style="ellipse;whiteSpace=wrap;html=1;aspect=fixed;rotation=45;" vertex="1" parent="1">
          <mxGeometry x="87.9966017177982" y="321.99660171779817" width="15" height="15" as="geometry" />
        </mxCell>
        <mxCell id="nAvkXDpZ_VF7ttyVOgmh-67" style="rounded=0;orthogonalLoop=1;jettySize=auto;html=1;exitX=0.5;exitY=1;exitDx=0;exitDy=0;" edge="1" parent="1">
          <mxGeometry relative="1" as="geometry">
            <mxPoint x="30" y="410" as="targetPoint" />
            <mxPoint x="89.99893218813469" y="335" as="sourcePoint" />
          </mxGeometry>
        </mxCell>
        <mxCell id="nAvkXDpZ_VF7ttyVOgmh-68" value="Telemetric Data" style="text;html=1;align=center;verticalAlign=middle;resizable=0;points=[];autosize=1;strokeColor=none;fillColor=none;rotation=-50;fontSize=10;" vertex="1" parent="1">
          <mxGeometry x="9.000046472393237" y="346.9962559664742" width="90" height="30" as="geometry" />
        </mxCell>
        <mxCell id="nAvkXDpZ_VF7ttyVOgmh-71" style="rounded=0;orthogonalLoop=1;jettySize=auto;html=1;exitX=0.5;exitY=0;exitDx=0;exitDy=0;" edge="1" parent="1">
          <mxGeometry relative="1" as="geometry">
            <mxPoint x="132" y="333" as="targetPoint" />
            <mxPoint x="73.28990257669739" y="410.6933008588991" as="sourcePoint" />
          </mxGeometry>
        </mxCell>
        <mxCell id="nAvkXDpZ_VF7ttyVOgmh-73" value="" style="ellipse;whiteSpace=wrap;html=1;aspect=fixed;rotation=45;" vertex="1" parent="1">
          <mxGeometry x="-0.003398282201828806" y="499.99660171779817" width="15" height="15" as="geometry" />
        </mxCell>
        <mxCell id="nAvkXDpZ_VF7ttyVOgmh-74" style="rounded=0;orthogonalLoop=1;jettySize=auto;html=1;exitX=1;exitY=1;exitDx=0;exitDy=0;" edge="1" parent="1">
          <mxGeometry relative="1" as="geometry">
            <mxPoint x="7" y="590" as="targetPoint" />
            <mxPoint x="7.4966017177980575" y="514.9966017178124" as="sourcePoint" />
          </mxGeometry>
        </mxCell>
        <mxCell id="nAvkXDpZ_VF7ttyVOgmh-75" value="Parsed Data" style="text;html=1;align=center;verticalAlign=middle;resizable=0;points=[];autosize=1;strokeColor=none;fillColor=none;rotation=-90;fontSize=10;" vertex="1" parent="1">
          <mxGeometry x="-54.99533672205703" y="534.9955298925847" width="80" height="30" as="geometry" />
        </mxCell>
        <mxCell id="nAvkXDpZ_VF7ttyVOgmh-76" value="" style="ellipse;whiteSpace=wrap;html=1;aspect=fixed;rotation=45;" vertex="1" parent="1">
          <mxGeometry x="44.996601717798214" y="575.9966017177982" width="15" height="15" as="geometry" />
        </mxCell>
        <mxCell id="nAvkXDpZ_VF7ttyVOgmh-77" style="rounded=0;orthogonalLoop=1;jettySize=auto;html=1;exitX=0;exitY=0;exitDx=0;exitDy=0;" edge="1" parent="1" source="nAvkXDpZ_VF7ttyVOgmh-76">
          <mxGeometry relative="1" as="geometry">
            <mxPoint x="52" y="500" as="targetPoint" />
            <mxPoint x="60" y="565" as="sourcePoint" />
          </mxGeometry>
        </mxCell>
        <mxCell id="nAvkXDpZ_VF7ttyVOgmh-79" value="Chunked Data" style="text;html=1;align=center;verticalAlign=middle;resizable=0;points=[];autosize=1;strokeColor=none;fillColor=none;rotation=90;fontSize=10;" vertex="1" parent="1">
          <mxGeometry x="24" y="525" width="90" height="30" as="geometry" />
        </mxCell>
        <mxCell id="nAvkXDpZ_VF7ttyVOgmh-80" value="Processed Data" style="text;html=1;align=center;verticalAlign=middle;resizable=0;points=[];autosize=1;strokeColor=none;fillColor=none;rotation=307;fontSize=10;flipH=1;flipV=1;" vertex="1" parent="1">
          <mxGeometry x="63.49398517954433" y="364.9942585168419" width="90" height="30" as="geometry" />
        </mxCell>
        <mxCell id="nAvkXDpZ_VF7ttyVOgmh-81" value="" style="ellipse;whiteSpace=wrap;html=1;aspect=fixed;rotation=45;" vertex="1" parent="1">
          <mxGeometry x="148.49660171779823" y="329.99660171779817" width="15" height="15" as="geometry" />
        </mxCell>
        <mxCell id="nAvkXDpZ_VF7ttyVOgmh-82" style="rounded=0;orthogonalLoop=1;jettySize=auto;html=1;exitX=1;exitY=0.753;exitDx=0;exitDy=0;exitPerimeter=0;" edge="1" parent="1" source="nAvkXDpZ_VF7ttyVOgmh-81">
          <mxGeometry relative="1" as="geometry">
            <mxPoint x="190" y="425" as="targetPoint" />
            <mxPoint x="163.49990257669305" y="344.99990257669293" as="sourcePoint" />
          </mxGeometry>
        </mxCell>
        <mxCell id="nAvkXDpZ_VF7ttyVOgmh-83" value="Processed Data" style="text;html=1;align=center;verticalAlign=middle;resizable=0;points=[];autosize=1;strokeColor=none;fillColor=none;rotation=68;fontSize=10;flipH=1;flipV=1;" vertex="1" parent="1">
          <mxGeometry x="118.00120869255156" y="369.9958232994089" width="90" height="30" as="geometry" />
        </mxCell>
        <mxCell id="nAvkXDpZ_VF7ttyVOgmh-87" style="rounded=0;orthogonalLoop=1;jettySize=auto;html=1;exitX=-0.048;exitY=0.271;exitDx=0;exitDy=0;exitPerimeter=0;" edge="1" parent="1">
          <mxGeometry relative="1" as="geometry">
            <mxPoint x="184" y="330.24" as="targetPoint" />
            <mxPoint x="218.1130957698208" y="417.995272183069" as="sourcePoint" />
          </mxGeometry>
        </mxCell>
        <mxCell id="nAvkXDpZ_VF7ttyVOgmh-88" value="Vectorized Data" style="text;html=1;align=center;verticalAlign=middle;resizable=0;points=[];autosize=1;strokeColor=none;fillColor=none;rotation=68;fontSize=10;flipH=1;flipV=1;" vertex="1" parent="1">
          <mxGeometry x="167.00120869255156" y="362.99" width="90" height="30" as="geometry" />
        </mxCell>
        <mxCell id="nAvkXDpZ_VF7ttyVOgmh-89" value="" style="ellipse;whiteSpace=wrap;html=1;aspect=fixed;rotation=45;" vertex="1" parent="1">
          <mxGeometry x="208.99660171779823" y="290.99660171779817" width="15" height="15" as="geometry" />
        </mxCell>
        <mxCell id="nAvkXDpZ_VF7ttyVOgmh-90" style="rounded=0;orthogonalLoop=1;jettySize=auto;html=1;exitX=1;exitY=0.5;exitDx=0;exitDy=0;" edge="1" parent="1" source="nAvkXDpZ_VF7ttyVOgmh-89">
          <mxGeometry relative="1" as="geometry">
            <mxPoint x="320" y="370" as="targetPoint" />
            <mxPoint x="224.9966017177982" y="304" as="sourcePoint" />
          </mxGeometry>
        </mxCell>
        <mxCell id="nAvkXDpZ_VF7ttyVOgmh-91" value="Vectorized Data" style="text;html=1;align=center;verticalAlign=middle;resizable=0;points=[];autosize=1;strokeColor=none;fillColor=none;rotation=35;fontSize=10;flipH=1;flipV=1;" vertex="1" parent="1">
          <mxGeometry x="226.99505452221786" y="308.9923723567441" width="90" height="30" as="geometry" />
        </mxCell>
        <mxCell id="nAvkXDpZ_VF7ttyVOgmh-92" value="" style="ellipse;whiteSpace=wrap;html=1;aspect=fixed;rotation=45;" vertex="1" parent="1">
          <mxGeometry x="213.99660171779823" y="416.99660171779817" width="15" height="15" as="geometry" />
        </mxCell>
        <mxCell id="nAvkXDpZ_VF7ttyVOgmh-95" value="" style="ellipse;whiteSpace=wrap;html=1;aspect=fixed;rotation=45;fillColor=light-dark(#FFFFFF, #ffffff);fillStyle=solid;" vertex="1" parent="1">
          <mxGeometry x="335.99660171779817" y="417.99660171779817" width="15" height="15" as="geometry" />
        </mxCell>
        <mxCell id="nAvkXDpZ_VF7ttyVOgmh-96" value="" style="ellipse;whiteSpace=wrap;html=1;aspect=fixed;rotation=45;" vertex="1" parent="1">
          <mxGeometry x="62.496601717798214" y="409.99660171779817" width="15" height="15" as="geometry" />
        </mxCell>
        <mxCell id="nAvkXDpZ_VF7ttyVOgmh-97" style="rounded=0;orthogonalLoop=1;jettySize=auto;html=1;exitX=0;exitY=0.5;exitDx=0;exitDy=0;" edge="1" parent="1" source="nAvkXDpZ_VF7ttyVOgmh-95">
          <mxGeometry relative="1" as="geometry">
            <mxPoint x="250" y="360" as="targetPoint" />
            <mxPoint x="320" y="427" as="sourcePoint" />
          </mxGeometry>
        </mxCell>
        <mxCell id="nAvkXDpZ_VF7ttyVOgmh-98" value="Data Persisted" style="text;html=1;align=center;verticalAlign=middle;resizable=0;points=[];autosize=1;strokeColor=none;fillColor=none;rotation=35;fontSize=10;flipH=1;flipV=1;" vertex="1" parent="1">
          <mxGeometry x="247.99548853827034" y="387.99822030013195" width="90" height="30" as="geometry" />
        </mxCell>
        <mxCell id="nAvkXDpZ_VF7ttyVOgmh-99" value="Response Invokation through LLM" style="rounded=1;whiteSpace=wrap;html=1;" vertex="1" parent="1">
          <mxGeometry x="790" y="595" width="100" height="50" as="geometry" />
        </mxCell>
        <mxCell id="nAvkXDpZ_VF7ttyVOgmh-102" value="" style="ellipse;whiteSpace=wrap;html=1;aspect=fixed;rotation=45;" vertex="1" parent="1">
          <mxGeometry x="504.99660171779817" y="107.49660171779821" width="15" height="15" as="geometry" />
        </mxCell>
        <mxCell id="nAvkXDpZ_VF7ttyVOgmh-103" style="rounded=0;orthogonalLoop=1;jettySize=auto;html=1;exitX=1;exitY=0.5;exitDx=0;exitDy=0;" edge="1" parent="1" source="nAvkXDpZ_VF7ttyVOgmh-102">
          <mxGeometry relative="1" as="geometry">
            <mxPoint x="645" y="182.5" as="targetPoint" />
            <mxPoint x="615" y="127.5" as="sourcePoint" />
          </mxGeometry>
        </mxCell>
        <mxCell id="nAvkXDpZ_VF7ttyVOgmh-104" value="User Query" style="text;html=1;align=center;verticalAlign=middle;resizable=0;points=[];autosize=1;strokeColor=none;fillColor=none;rotation=26;" vertex="1" parent="1">
          <mxGeometry x="541.0015854075765" y="121.49934727517774" width="80" height="30" as="geometry" />
        </mxCell>
        <mxCell id="nAvkXDpZ_VF7ttyVOgmh-105" value="" style="ellipse;whiteSpace=wrap;html=1;aspect=fixed;rotation=45;" vertex="1" parent="1">
          <mxGeometry x="629.9966017177982" y="298.99660171779817" width="15" height="15" as="geometry" />
        </mxCell>
        <mxCell id="nAvkXDpZ_VF7ttyVOgmh-106" style="rounded=0;orthogonalLoop=1;jettySize=auto;html=1;exitX=0.5;exitY=1;exitDx=0;exitDy=0;" edge="1" parent="1" source="nAvkXDpZ_VF7ttyVOgmh-105">
          <mxGeometry relative="1" as="geometry">
            <mxPoint x="530" y="430" as="targetPoint" />
            <mxPoint x="730" y="320" as="sourcePoint" />
          </mxGeometry>
        </mxCell>
        <mxCell id="nAvkXDpZ_VF7ttyVOgmh-107" value="Vectorized User Query" style="text;html=1;align=center;verticalAlign=middle;resizable=0;points=[];autosize=1;strokeColor=none;fillColor=none;rotation=311;fontSize=10;" vertex="1" parent="1">
          <mxGeometry x="520.0015854075765" y="338.98934727517775" width="120" height="30" as="geometry" />
        </mxCell>
        <mxCell id="nAvkXDpZ_VF7ttyVOgmh-112" style="rounded=0;orthogonalLoop=1;jettySize=auto;html=1;exitX=0.5;exitY=0;exitDx=0;exitDy=0;" edge="1" parent="1" source="nAvkXDpZ_VF7ttyVOgmh-111">
          <mxGeometry relative="1" as="geometry">
            <mxPoint x="690" y="320" as="targetPoint" />
          </mxGeometry>
        </mxCell>
        <mxCell id="nAvkXDpZ_VF7ttyVOgmh-111" value="" style="ellipse;whiteSpace=wrap;html=1;aspect=fixed;rotation=45;" vertex="1" parent="1">
          <mxGeometry x="599.9966017177982" y="410.49660171779817" width="15" height="15" as="geometry" />
        </mxCell>
        <mxCell id="nAvkXDpZ_VF7ttyVOgmh-113" value="Context Data" style="text;html=1;align=center;verticalAlign=middle;resizable=0;points=[];autosize=1;strokeColor=none;fillColor=none;rotation=309;fontSize=10;" vertex="1" parent="1">
          <mxGeometry x="620.004185442772" y="362.9934602482239" width="80" height="30" as="geometry" />
        </mxCell>
        <mxCell id="nAvkXDpZ_VF7ttyVOgmh-114" value="" style="ellipse;whiteSpace=wrap;html=1;aspect=fixed;rotation=45;" vertex="1" parent="1">
          <mxGeometry x="729.9966017177982" y="293.99660171779817" width="15" height="15" as="geometry" />
        </mxCell>
        <mxCell id="nAvkXDpZ_VF7ttyVOgmh-115" style="rounded=0;orthogonalLoop=1;jettySize=auto;html=1;exitX=1;exitY=0.5;exitDx=0;exitDy=0;" edge="1" parent="1" source="nAvkXDpZ_VF7ttyVOgmh-114">
          <mxGeometry relative="1" as="geometry">
            <mxPoint x="800" y="370" as="targetPoint" />
            <mxPoint x="790" y="433" as="sourcePoint" />
          </mxGeometry>
        </mxCell>
        <mxCell id="nAvkXDpZ_VF7ttyVOgmh-116" value="Context Data" style="text;html=1;align=center;verticalAlign=middle;resizable=0;points=[];autosize=1;strokeColor=none;fillColor=none;rotation=47;fontSize=10;" vertex="1" parent="1">
          <mxGeometry x="733.000005063848" y="312.99564432402644" width="80" height="30" as="geometry" />
        </mxCell>
        <mxCell id="nAvkXDpZ_VF7ttyVOgmh-117" value="" style="ellipse;whiteSpace=wrap;html=1;aspect=fixed;rotation=45;" vertex="1" parent="1">
          <mxGeometry x="812.9966017177982" y="494.99508085947605" width="15" height="15" as="geometry" />
        </mxCell>
        <mxCell id="nAvkXDpZ_VF7ttyVOgmh-118" style="rounded=0;orthogonalLoop=1;jettySize=auto;html=1;exitX=1;exitY=1;exitDx=0;exitDy=0;" edge="1" parent="1" source="nAvkXDpZ_VF7ttyVOgmh-117">
          <mxGeometry relative="1" as="geometry">
            <mxPoint x="820" y="585" as="targetPoint" />
            <mxPoint x="748.11" y="789.4884791416778" as="sourcePoint" />
          </mxGeometry>
        </mxCell>
        <mxCell id="nAvkXDpZ_VF7ttyVOgmh-119" value="Augmented&amp;nbsp;&lt;div&gt;Query&lt;/div&gt;" style="text;html=1;align=center;verticalAlign=middle;resizable=0;points=[];autosize=1;strokeColor=none;fillColor=none;rotation=-90;fontSize=10;" vertex="1" parent="1">
          <mxGeometry x="765.000005063848" y="520.0041234657042" width="80" height="40" as="geometry" />
        </mxCell>
        <mxCell id="nAvkXDpZ_VF7ttyVOgmh-120" value="" style="ellipse;whiteSpace=wrap;html=1;aspect=fixed;rotation=45;" vertex="1" parent="1">
          <mxGeometry x="849.9966017177982" y="569.995080859476" width="15" height="15" as="geometry" />
        </mxCell>
        <mxCell id="nAvkXDpZ_VF7ttyVOgmh-121" style="rounded=0;orthogonalLoop=1;jettySize=auto;html=1;exitX=1;exitY=0.5;exitDx=0;exitDy=0;" edge="1" parent="1">
          <mxGeometry relative="1" as="geometry">
            <mxPoint x="857" y="500" as="targetPoint" />
            <mxPoint x="857.2299025766958" y="569.9983817183737" as="sourcePoint" />
          </mxGeometry>
        </mxCell>
        <mxCell id="nAvkXDpZ_VF7ttyVOgmh-123" value="Response" style="text;html=1;align=center;verticalAlign=middle;resizable=0;points=[];autosize=1;strokeColor=none;fillColor=none;rotation=90;fontSize=10;" vertex="1" parent="1">
          <mxGeometry x="832.0002399267875" y="524.0041234657043" width="70" height="30" as="geometry" />
        </mxCell>
        <mxCell id="nAvkXDpZ_VF7ttyVOgmh-126" style="rounded=0;orthogonalLoop=1;jettySize=auto;html=1;exitX=0;exitY=0.5;exitDx=0;exitDy=0;" edge="1" parent="1" source="nAvkXDpZ_VF7ttyVOgmh-124">
          <mxGeometry relative="1" as="geometry">
            <mxPoint x="820" y="370" as="targetPoint" />
          </mxGeometry>
        </mxCell>
        <mxCell id="nAvkXDpZ_VF7ttyVOgmh-124" value="" style="ellipse;whiteSpace=wrap;html=1;aspect=fixed;rotation=45;" vertex="1" parent="1">
          <mxGeometry x="864.9966017177983" y="410.49660171779817" width="15" height="15" as="geometry" />
        </mxCell>
        <mxCell id="nAvkXDpZ_VF7ttyVOgmh-125" value="Response" style="text;html=1;align=center;verticalAlign=middle;resizable=0;points=[];autosize=1;strokeColor=none;fillColor=none;rotation=42;fontSize=10;" vertex="1" parent="1">
          <mxGeometry x="820" y="373" width="70" height="30" as="geometry" />
        </mxCell>
        <mxCell id="nAvkXDpZ_VF7ttyVOgmh-128" style="rounded=0;orthogonalLoop=1;jettySize=auto;html=1;exitX=0;exitY=0.5;exitDx=0;exitDy=0;" edge="1" parent="1">
          <mxGeometry relative="1" as="geometry">
            <mxPoint x="478" y="170" as="targetPoint" />
            <mxPoint x="575.1906558165547" y="215.6935489854211" as="sourcePoint" />
          </mxGeometry>
        </mxCell>
        <mxCell id="nAvkXDpZ_VF7ttyVOgmh-129" value="" style="ellipse;whiteSpace=wrap;html=1;aspect=fixed;rotation=45;" vertex="1" parent="1">
          <mxGeometry x="574.9939566754069" y="210.49684984427316" width="15" height="15" as="geometry" />
        </mxCell>
        <mxCell id="nAvkXDpZ_VF7ttyVOgmh-130" value="Response" style="text;html=1;align=center;verticalAlign=middle;resizable=0;points=[];autosize=1;strokeColor=none;fillColor=none;rotation=26;fontSize=12;" vertex="1" parent="1">
          <mxGeometry x="499.9973549576084" y="169.000248126475" width="80" height="30" as="geometry" />
        </mxCell>
        <mxCell id="nAvkXDpZ_VF7ttyVOgmh-131" value="" style="ellipse;whiteSpace=wrap;html=1;aspect=fixed;rotation=45;fillColor=light-dark(#FFFFFF, #ffffff);fillStyle=solid;" vertex="1" parent="1">
          <mxGeometry x="239.99660171779817" y="201.99660171779817" width="15" height="15" as="geometry" />
        </mxCell>
        <mxCell id="nAvkXDpZ_VF7ttyVOgmh-133" style="rounded=0;orthogonalLoop=1;jettySize=auto;html=1;exitX=0.5;exitY=0;exitDx=0;exitDy=0;" edge="1" parent="1" source="nAvkXDpZ_VF7ttyVOgmh-131">
          <mxGeometry relative="1" as="geometry">
            <mxPoint x="340" y="160" as="targetPoint" />
            <mxPoint x="347.1906558165547" y="245.6935489854211" as="sourcePoint" />
          </mxGeometry>
        </mxCell>
        <mxCell id="nAvkXDpZ_VF7ttyVOgmh-134" value="Data Store&amp;nbsp;&lt;div&gt;Created&lt;/div&gt;" style="text;html=1;align=center;verticalAlign=middle;resizable=0;points=[];autosize=1;strokeColor=none;fillColor=none;rotation=333;" vertex="1" parent="1">
          <mxGeometry x="261.0015854075765" y="180.49934727517774" width="80" height="40" as="geometry" />
        </mxCell>
      </root>
    </mxGraphModel>
  </diagram>
</mxfile>
